Coordinates
version=1
nRows=7
nColumns=63
inDegrees=yes

Units are S.I. units (second, meters, Newtons, ...)
If the header above contains a line with 'inDegrees', this indicates whether rotational values are in degrees (yes) or radians (no).

endheader
time	pelvis_tilt	pelvis_list	pelvis_rotation	pelvis_tx	pelvis_ty	pelvis_tz	hip_flexion_r	hip_adduction_r	hip_rotation_r	knee_angle_r	knee_angle_r_beta	ankle_angle_r	subtalar_angle_r	mtp_angle_r	hip_flexion_l	hip_adduction_l	hip_rotation_l	knee_angle_l	knee_angle_l_beta	ankle_angle_l	subtalar_angle_l	mtp_angle_l	L5_S1_Flex_Ext	L5_S1_Lat_Bending	L5_S1_axial_rotation	L4_L5_Flex_Ext	L4_L5_Lat_Bending	L4_L5_axial_rotation	L3_L4_Flex_Ext	L3_L4_Lat_Bending	L3_L4_axial_rotation	L2_L3_Flex_Ext	L2_L3_Lat_Bending	L2_L3_axial_rotation	L1_L2_Flex_Ext	L1_L2_Lat_Bending	L1_L2_axial_rotation	L1_T12_Flex_Ext	L1_T12_Lat_Bending	L1_T12_axial_rotation	Abs_r3	Abs_r2	Abs_r1	Abs_t1	Abs_t2	neck_flexion	neck_bending	neck_rotation	arm_flex_r	arm_add_r	arm_rot_r	elbow_flex_r	pro_sup_r	wrist_flex_r	wrist_dev_r	arm_flex_l	arm_add_l	arm_rot_l	elbow_flex_l	pro_sup_l	wrist_flex_l	wrist_dev_l
      3.10000000	      1.40352587	    -10.36976771	     93.91588125	      0.22488016	      1.06027793	      0.42466371	      2.15616069	     -2.16299706	      0.44328846	     11.28924148	      0.19703443	     29.78219343	      0.51163207	      0.00000000	     -3.32851349	      0.18599084	      7.51073149	      1.40523705	      0.02452601	     23.36631804	     -4.71589532	      0.00000000	      0.10382266	      0.17245021	      0.50118066	      0.19280907	      0.22935878	      0.53250445	      0.17057025	      0.41929543	      0.53250445	      0.11865892	      0.41929543	      0.43853308	      0.09640972	      0.35166046	      0.40720929	      0.05932427	      0.26712537	      0.37588550	      0.74159489	      1.95079123	      2.78741649	      0.00000000	      0.00000000	     26.13957321	      3.29705324	      7.03358283	     24.02993063	    -10.41701165	    167.83772932	      2.28148504	      3.37543126	     10.80766240	    -13.69799060	     18.38806293	    -10.63947029	    165.79627849	      0.41516920	     10.92110313	    -19.62439836	    -15.67427064
      3.11666667	      1.46060796	    -10.31542340	     93.82295452	      0.22502877	      1.06008662	      0.42495777	      2.19085616	     -2.09556142	      0.53817100	     11.31181933	      0.19742849	     30.12701296	      0.79760722	      0.00000000	     -3.36008905	      0.11541762	      7.77713245	      1.20523364	      0.02103530	     24.26291332	     -4.35196270	      0.00000000	      0.10066405	      0.16817681	      0.55216876	      0.18694320	      0.22367515	      0.58667931	      0.16538096	      0.40890509	      0.58667931	      0.11504894	      0.40890509	      0.48314767	      0.09347663	      0.34294614	      0.44863712	      0.05751944	      0.26050587	      0.41412657	      0.71903321	      1.90244966	      3.07099700	      0.00000000	      0.00000000	     26.10678421	      2.79236428	      5.53781710	     23.38756086	     -8.32723846	    165.85695487	      1.72729815	      2.69460121	     10.81864200	    -13.78119337	     18.81643869	     -8.40887127	    165.28293326	      0.37639380	      8.36622337	    -22.70245330	    -18.80712647
      3.13333333	      1.43792764	    -10.14618489	     93.62953523	      0.22544578	      1.06012919	      0.42472014	      2.08251599	     -2.09378894	      0.63776105	     11.30203195	      0.19725767	     30.54212974	      1.18770759	      0.00000000	     -3.52726365	      0.11410946	      7.88947805	      0.99326999	      0.01733583	     25.22378452	     -3.86055199	      0.00000000	      0.08304580	      0.15190785	      0.58390358	      0.15422436	      0.20203744	      0.62039756	      0.13643595	      0.36934875	      0.62039756	      0.09491305	      0.36934875	      0.51091563	      0.07711633	      0.30977049	      0.47442166	      0.04745237	      0.23530526	      0.43792769	      0.59318787	      1.71841199	      3.24749656	      0.00000000	      0.00000000	     25.97457848	      2.43675288	      4.18852446	     22.70378498	     -6.12800584	    163.07382591	      1.25983057	      2.33098453	      9.92157095	    -13.52356420	     19.33783778	     -6.31910602	    164.27959956	      0.35265577	      4.81701444	    -22.60551783	    -21.37874287
      3.15000000	      1.40927850	     -9.92641986	     93.39391236	      0.22583250	      1.06045141	      0.42421328	      1.87963738	     -2.10040113	      0.78794334	     11.19195738	      0.19533651	     30.94318956	      1.56454049	      0.00000000	     -3.74227475	      0.12073152	      7.65768234	      0.79126896	      0.01381025	     26.06050771	     -3.08960531	      0.00000000	      0.06246340	      0.13815492	      0.62965688	      0.11600078	      0.18374604	      0.66901043	      0.10262112	      0.33590987	      0.66901043	      0.07138942	      0.33590987	      0.55094977	      0.05800351	      0.28172551	      0.51159621	      0.03569159	      0.21400197	      0.47224266	      0.44616983	      1.56283608	      3.50196265	      0.00000000	      0.00000000	     25.69875188	      2.10313729	      3.03266916	     22.00969145	     -4.09534018	    160.01875622	      0.90611053	      2.18762216	      8.52110872	    -13.35077899	     20.12597424	     -4.30792484	    162.22627132	      0.33219571	      2.58250458	    -18.14987455	    -22.61690985
      3.16666667	      1.42470618	     -9.61099404	     93.02945847	      0.22644303	      1.06094554	      0.42316207	      1.57443070	     -2.04644801	      1.09080421	     11.06746319	      0.19316367	     31.32024205	      1.82459188	      0.00000000	     -4.07995298	      0.08462072	      6.74074677	      0.65237434	      0.01138608	     26.85915582	     -1.81673602	      0.00000000	      0.03390944	      0.13219301	      0.66630021	      0.06297323	      0.17581670	      0.70794398	      0.05570983	      0.32141407	      0.70794398	      0.03875510	      0.32141407	      0.58301269	      0.03148831	      0.26956798	      0.54136892	      0.01937586	      0.20476697	      0.49972516	      0.24221177	      1.49539371	      3.70576190	      0.00000000	      0.00000000	     25.39899280	      1.95729381	      2.17881045	     21.44403159	     -2.22801685	    157.26467476	      0.69103510	      2.09975050	      7.74484920	    -13.53055891	     20.79593511	     -2.57394263	    157.96101593	      0.35420385	      1.92453459	    -11.63318495	    -23.21171931
      3.18333333	      1.10612250	     -9.86444978	     92.46407568	      0.22864657	      1.05671356	      0.41936993	      1.71101989	     -2.20045288	      2.50165928	     11.04692544	      0.19280522	     32.67810066	      0.89310388	      0.00000000	     -4.10206858	      0.32776799	      4.54386049	      0.50200175	      0.00876158	     28.72088290	      1.22871396	      0.00000000	      0.05939676	      0.06754677	      0.45962525	      0.11030573	      0.08983720	      0.48835183	      0.09758294	      0.16423321	      0.48835183	      0.06788456	      0.16423321	      0.40217209	      0.05515584	      0.13774137	      0.37344552	      0.03393931	      0.10462994	      0.34471894	      0.42426515	      0.76410256	      2.55629776	      0.00000000	      0.00000000	     26.73161684	      2.85882187	      3.16873806	     13.81388684	     -8.05222477	     47.90484777	     28.84413582	     86.18173566	     -0.50620228	      6.78419123	     11.08348569	    -11.62610542	     41.67951334	     34.02398773	     88.01585403	     -9.41090496	     -5.15348847
      3.20000000	      1.26460723	     -9.61415946	     91.88667848	      0.22933180	      1.05718153	      0.41728836	      1.40113480	     -2.02311047	      2.96878101	     10.80759452	      0.18862811	     32.80940689	      1.04767851	      0.00000000	     -4.50440008	      0.18312846	      3.63079708	      0.43665891	      0.00762114	     28.96545253	      1.83855113	      0.00000000	      0.04766334	      0.09315799	      0.54866846	      0.08851559	      0.12390013	      0.58296023	      0.07830610	      0.22650434	      0.58296023	      0.05447443	      0.22650434	      0.48008490	      0.04426018	      0.18996778	      0.44579312	      0.02723483	      0.14430173	      0.41150134	      0.34045448	      1.05382183	      3.05152935	      0.00000000	      0.00000000	     26.61857168	      2.69591783	      3.18451785	     12.40270342	     -7.10291620	     44.80656905	     30.59298992	     85.15213990	     -0.05951254	      7.73224575	     10.97704505	    -10.12438429	     39.89984673	     34.46542970	     87.46047779	     -6.08948526	     -3.66717888
